<svg width="640.000000" height="480.000000" version="1.1" xmlns="http://www.w3.org/2000/svg">
<rect x="0" y="0" width="640.000000" height="480.000000" fill="white"/>
<line x1="270.000100" y1="239.900000" x2="280.000100" y2="209.999867" style="stroke:rgb(127.500000,255.000000,127.500000);stroke-width:2.000000" />
<line x1="280.000100" y1="209.999867" x2="290.000100" y2="199.999925" style="stroke:rgb(127.500000,255.000000,127.500000);stroke-width:2.000000" />
<line x1="290.000100" y1="199.999925" x2="300.000100" y2="194.174199" style="stroke:rgb(127.500000,255.000000,127.500000);stroke-width:2.000000" />
<line x1="300.000100" y1="194.174199" x2="310.000100" y2="191.010185" style="stroke:rgb(127.500000,255.000000,127.500000);stroke-width:2.000000" />
<line x1="310.000100" y1="191.010185" x2="320.000100" y2="190.000000" style="stroke:rgb(127.500000,255.000000,127.500000);stroke-width:2.000000" />
<line x1="320.000100" y1="190.000000" x2="330.000100" y2="191.010226" style="stroke:rgb(127.500000,255.000000,127.500000);stroke-width:2.000000" />
<line x1="330.000100" y1="191.010226" x2="340.000100" y2="194.174287" style="stroke:rgb(127.500000,255.000000,127.500000);stroke-width:2.000000" />
<line x1="340.000100" y1="194.174287" x2="350.000100" y2="200.000075" style="stroke:rgb(127.500000,255.000000,127.500000);stroke-width:2.000000" />
<line x1="350.000100" y1="200.000075" x2="360.000100" y2="210.000133" style="stroke:rgb(127.500000,255.000000,127.500000);stroke-width:2.000000" />
<line x1="360.000100" y1="210.000133" x2="369.999900" y2="240.100000" style="stroke:rgb(127.500000,255.000000,127.500000);stroke-width:2.000000" />
<line x1="369.999900" y1="240.100000" x2="359.999900" y2="270.000133" style="stroke:rgb(127.500000,255.000000,127.500000);stroke-width:2.000000" />
<line x1="359.999900" y1="270.000133" x2="349.999900" y2="280.000075" style="stroke:rgb(127.500000,255.000000,127.500000);stroke-width:2.000000" />
<line x1="349.999900" y1="280.000075" x2="339.999900" y2="285.825801" style="stroke:rgb(127.500000,255.000000,127.500000);stroke-width:2.000000" />
<line x1="339.999900" y1="285.825801" x2="329.999900" y2="288.989815" style="stroke:rgb(127.500000,255.000000,127.500000);stroke-width:2.000000" />
<line x1="329.999900" y1="288.989815" x2="319.999900" y2="290.000000" style="stroke:rgb(127.500000,255.000000,127.500000);stroke-width:2.000000" />
<line x1="319.999900" y1="290.000000" x2="309.999900" y2="288.989774" style="stroke:rgb(127.500000,255.000000,127.500000);stroke-width:2.000000" />
<line x1="309.999900" y1="288.989774" x2="299.999900" y2="285.825713" style="stroke:rgb(127.500000,255.000000,127.500000);stroke-width:2.000000" />
<line x1="299.999900" y1="285.825713" x2="289.999900" y2="279.999925" style="stroke:rgb(127.500000,255.000000,127.500000);stroke-width:2.000000" />
<line x1="289.999900" y1="279.999925" x2="279.999900" y2="269.999867" style="stroke:rgb(127.500000,255.000000,127.500000);stroke-width:2.000000" />
<line x1="279.999900" y1="269.999867" x2="270.000100" y2="239.900000" style="stroke:rgb(127.500000,255.000000,127.500000);stroke-width:2.000000" />
<line x1="320.000000" y1="140.000000" x2="370.000000" y2="215.000000" style="stroke:rgb(127.500000,255.000000,127.500000);stroke-width:2.000000" />
<line x1="370.000000" y1="215.000000" x2="370.000000" y2="165.000000" style="stroke:rgb(127.500000,255.000000,127.500000);stroke-width:2.000000" />
<line x1="370.000000" y1="165.000000" x2="420.000000" y2="240.000000" style="stroke:rgb(127.500000,255.000000,127.500000);stroke-width:2.000000" />
</svg>