<svg width="640.000000" height="480.000000" version="1.1" xmlns="http://www.w3.org/2000/svg">
<rect x="0" y="0" width="640.000000" height="480.000000" fill="white"/>
<line x1="470.000100" y1="339.920000" x2="480.000100" y2="315.999893" style="stroke:rgb(127.500000,255.000000,127.500000);stroke-width:2.000000" />
<line x1="480.000100" y1="315.999893" x2="490.000100" y2="307.999940" style="stroke:rgb(127.500000,255.000000,127.500000);stroke-width:2.000000" />
<line x1="490.000100" y1="307.999940" x2="500.000100" y2="303.339360" style="stroke:rgb(127.500000,255.000000,127.500000);stroke-width:2.000000" />
<line x1="500.000100" y1="303.339360" x2="510.000100" y2="300.808148" style="stroke:rgb(127.500000,255.000000,127.500000);stroke-width:2.000000" />
<line x1="510.000100" y1="300.808148" x2="520.000100" y2="300.000000" style="stroke:rgb(127.500000,255.000000,127.500000);stroke-width:2.000000" />
<line x1="520.000100" y1="300.000000" x2="530.000100" y2="300.808180" style="stroke:rgb(127.500000,255.000000,127.500000);stroke-width:2.000000" />
<line x1="530.000100" y1="300.808180" x2="540.000100" y2="303.339429" style="stroke:rgb(127.500000,255.000000,127.500000);stroke-width:2.000000" />
<line x1="540.000100" y1="303.339429" x2="550.000100" y2="308.000060" style="stroke:rgb(127.500000,255.000000,127.500000);stroke-width:2.000000" />
<line x1="550.000100" y1="308.000060" x2="560.000100" y2="316.000107" style="stroke:rgb(127.500000,255.000000,127.500000);stroke-width:2.000000" />
<line x1="560.000100" y1="316.000107" x2="569.999900" y2="340.080000" style="stroke:rgb(127.500000,255.000000,127.500000);stroke-width:2.000000" />
<line x1="569.999900" y1="340.080000" x2="559.999900" y2="364.000107" style="stroke:rgb(127.500000,255.000000,127.500000);stroke-width:2.000000" />
<line x1="559.999900" y1="364.000107" x2="549.999900" y2="372.000060" style="stroke:rgb(127.500000,255.000000,127.500000);stroke-width:2.000000" />
<line x1="549.999900" y1="372.000060" x2="539.999900" y2="376.660640" style="stroke:rgb(127.500000,255.000000,127.500000);stroke-width:2.000000" />
<line x1="539.999900" y1="376.660640" x2="529.999900" y2="379.191852" style="stroke:rgb(127.500000,255.000000,127.500000);stroke-width:2.000000" />
<line x1="529.999900" y1="379.191852" x2="519.999900" y2="380.000000" style="stroke:rgb(127.500000,255.000000,127.500000);stroke-width:2.000000" />
<line x1="519.999900" y1="380.000000" x2="509.999900" y2="379.191820" style="stroke:rgb(127.500000,255.000000,127.500000);stroke-width:2.000000" />
<line x1="509.999900" y1="379.191820" x2="499.999900" y2="376.660571" style="stroke:rgb(127.500000,255.000000,127.500000);stroke-width:2.000000" />
<line x1="499.999900" y1="376.660571" x2="489.999900" y2="371.999940" style="stroke:rgb(127.500000,255.000000,127.500000);stroke-width:2.000000" />
<line x1="489.999900" y1="371.999940" x2="479.999900" y2="363.999893" style="stroke:rgb(127.500000,255.000000,127.500000);stroke-width:2.000000" />
<line x1="479.999900" y1="363.999893" x2="470.000100" y2="339.920000" style="stroke:rgb(127.500000,255.000000,127.500000);stroke-width:2.000000" />
</svg>