<svg width="640.000000" height="480.000000" version="1.1" xmlns="http://www.w3.org/2000/svg">
<rect x="0" y="0" width="640.000000" height="480.000000" fill="white"/>
<line x1="446.190624" y1="339.881905" x2="461.190624" y2="304.001745" style="stroke:rgb(127.500000,255.000000,127.500000);stroke-width:2.000000" />
<line x1="461.190624" y1="304.001745" x2="476.190624" y2="292.001815" style="stroke:rgb(127.500000,255.000000,127.500000);stroke-width:2.000000" />
<line x1="476.190624" y1="292.001815" x2="491.190624" y2="285.010944" style="stroke:rgb(127.500000,255.000000,127.500000);stroke-width:2.000000" />
<line x1="491.190624" y1="285.010944" x2="506.190624" y2="281.214126" style="stroke:rgb(127.500000,255.000000,127.500000);stroke-width:2.000000" />
<line x1="506.190624" y1="281.214126" x2="521.190624" y2="280.001905" style="stroke:rgb(127.500000,255.000000,127.500000);stroke-width:2.000000" />
<line x1="521.190624" y1="280.001905" x2="536.190624" y2="281.214175" style="stroke:rgb(127.500000,255.000000,127.500000);stroke-width:2.000000" />
<line x1="536.190624" y1="281.214175" x2="551.190624" y2="285.011049" style="stroke:rgb(127.500000,255.000000,127.500000);stroke-width:2.000000" />
<line x1="551.190624" y1="285.011049" x2="566.190624" y2="292.001995" style="stroke:rgb(127.500000,255.000000,127.500000);stroke-width:2.000000" />
<line x1="566.190624" y1="292.001995" x2="581.190624" y2="304.002065" style="stroke:rgb(127.500000,255.000000,127.500000);stroke-width:2.000000" />
<line x1="581.190624" y1="304.002065" x2="596.190324" y2="340.121905" style="stroke:rgb(127.500000,255.000000,127.500000);stroke-width:2.000000" />
<line x1="596.190324" y1="340.121905" x2="581.190324" y2="376.002065" style="stroke:rgb(127.500000,255.000000,127.500000);stroke-width:2.000000" />
<line x1="581.190324" y1="376.002065" x2="566.190324" y2="388.001995" style="stroke:rgb(127.500000,255.000000,127.500000);stroke-width:2.000000" />
<line x1="566.190324" y1="388.001995" x2="551.190324" y2="394.992865" style="stroke:rgb(127.500000,255.000000,127.500000);stroke-width:2.000000" />
<line x1="551.190324" y1="394.992865" x2="536.190324" y2="398.789683" style="stroke:rgb(127.500000,255.000000,127.500000);stroke-width:2.000000" />
<line x1="536.190324" y1="398.789683" x2="521.190324" y2="400.001905" style="stroke:rgb(127.500000,255.000000,127.500000);stroke-width:2.000000" />
<line x1="521.190324" y1="400.001905" x2="506.190324" y2="398.789634" style="stroke:rgb(127.500000,255.000000,127.500000);stroke-width:2.000000" />
<line x1="506.190324" y1="398.789634" x2="491.190324" y2="394.992761" style="stroke:rgb(127.500000,255.000000,127.500000);stroke-width:2.000000" />
<line x1="491.190324" y1="394.992761" x2="476.190324" y2="388.001815" style="stroke:rgb(127.500000,255.000000,127.500000);stroke-width:2.000000" />
<line x1="476.190324" y1="388.001815" x2="461.190324" y2="376.001745" style="stroke:rgb(127.500000,255.000000,127.500000);stroke-width:2.000000" />
<line x1="461.190324" y1="376.001745" x2="446.190624" y2="339.881905" style="stroke:rgb(127.500000,255.000000,127.500000);stroke-width:2.000000" />
</svg>