<svg width="100.000000" height="200.000000" version="1.1" xmlns="http://www.w3.org/2000/svg">
<rect x="0" y="0" width="100.000000" height="200.000000" fill="white"/>
<line x1="50.000100" y1="99.920000" x2="60.000100" y2="75.999893" style="stroke:rgb(127.500000,255.000000,127.500000);stroke-width:2.000000" />
<line x1="60.000100" y1="75.999893" x2="70.000100" y2="67.999940" style="stroke:rgb(127.500000,255.000000,127.500000);stroke-width:2.000000" />
<line x1="70.000100" y1="67.999940" x2="80.000100" y2="63.339360" style="stroke:rgb(127.500000,255.000000,127.500000);stroke-width:2.000000" />
<line x1="80.000100" y1="63.339360" x2="90.000100" y2="60.808148" style="stroke:rgb(127.500000,255.000000,127.500000);stroke-width:2.000000" />
<line x1="90.000100" y1="60.808148" x2="100.000100" y2="60.000000" style="stroke:rgb(127.500000,255.000000,127.500000);stroke-width:2.000000" />
<line x1="100.000100" y1="60.000000" x2="110.000100" y2="60.808180" style="stroke:rgb(127.500000,255.000000,127.500000);stroke-width:2.000000" />
<line x1="110.000100" y1="60.808180" x2="120.000100" y2="63.339429" style="stroke:rgb(127.500000,255.000000,127.500000);stroke-width:2.000000" />
<line x1="120.000100" y1="63.339429" x2="130.000100" y2="68.000060" style="stroke:rgb(127.500000,255.000000,127.500000);stroke-width:2.000000" />
<line x1="130.000100" y1="68.000060" x2="140.000100" y2="76.000107" style="stroke:rgb(127.500000,255.000000,127.500000);stroke-width:2.000000" />
<line x1="140.000100" y1="76.000107" x2="149.999900" y2="100.080000" style="stroke:rgb(127.500000,255.000000,127.500000);stroke-width:2.000000" />
<line x1="149.999900" y1="100.080000" x2="139.999900" y2="124.000107" style="stroke:rgb(127.500000,255.000000,127.500000);stroke-width:2.000000" />
<line x1="139.999900" y1="124.000107" x2="129.999900" y2="132.000060" style="stroke:rgb(127.500000,255.000000,127.500000);stroke-width:2.000000" />
<line x1="129.999900" y1="132.000060" x2="119.999900" y2="136.660640" style="stroke:rgb(127.500000,255.000000,127.500000);stroke-width:2.000000" />
<line x1="119.999900" y1="136.660640" x2="109.999900" y2="139.191852" style="stroke:rgb(127.500000,255.000000,127.500000);stroke-width:2.000000" />
<line x1="109.999900" y1="139.191852" x2="99.999900" y2="140.000000" style="stroke:rgb(127.500000,255.000000,127.500000);stroke-width:2.000000" />
<line x1="99.999900" y1="140.000000" x2="89.999900" y2="139.191820" style="stroke:rgb(127.500000,255.000000,127.500000);stroke-width:2.000000" />
<line x1="89.999900" y1="139.191820" x2="79.999900" y2="136.660571" style="stroke:rgb(127.500000,255.000000,127.500000);stroke-width:2.000000" />
<line x1="79.999900" y1="136.660571" x2="69.999900" y2="131.999940" style="stroke:rgb(127.500000,255.000000,127.500000);stroke-width:2.000000" />
<line x1="69.999900" y1="131.999940" x2="59.999900" y2="123.999893" style="stroke:rgb(127.500000,255.000000,127.500000);stroke-width:2.000000" />
<line x1="59.999900" y1="123.999893" x2="50.000100" y2="99.920000" style="stroke:rgb(127.500000,255.000000,127.500000);stroke-width:2.000000" />
</svg>